<svg class="mobile-nav-icon" viewBox="0 0 56.926671 83.21725" height="18.725769" width="12.596496" xmlns="http://www.w3.org/2000/svg" aria-hidden="true">
                    <defs>
                        <clipPath id="clipPath3696">
                            <path d="M 0,768 H 1024 V 0 H 0 Z" />
                        </clipPath>
                    </defs>
                    <g clip-path="url(#clipPath3696)" transform="matrix(1.3333333,0,0,-1.3333333,-289.83012,554.92257)">
                        <g transform="translate(260.0676,373.8517)">
                            <path style="fill:#33305e;fill-opacity:1;fill-rule:nonzero;stroke:none" d="m 0,0 c 0,23.646 -21.347,31.598 -21.347,43.392 0,1.149 -21.348,-18.138 -21.348,-43.392 0,-8.933 5.488,-16.579 13.273,-19.764 -0.11,0.113 -0.211,0.236 -0.319,0.352 -3.957,2.687 -6.554,7.222 -6.554,12.366 0,16.552 14.948,22.118 14.948,30.37 0,0.803 14.943,-12.699 14.943,-30.37 0,-5.539 -3.029,-10.364 -7.503,-12.944 -0.015,-0.011 -0.032,-0.022 -0.04,-0.039 C -5.809,-17.015 0,-9.184 0,0" />
                        </g>
                        <g transform="translate(238.5263,373.0451)">
                            <path style="fill:#4765ad;fill-opacity:1;fill-rule:nonzero;stroke:none" d="m 0,0 c 6.138,0 11.117,-4.974 11.117,-11.114 0,-3.185 -1.345,-6.045 -3.483,-8.07 4.474,2.58 7.503,7.405 7.503,12.945 0,17.671 -14.943,31.172 -14.943,30.369 0,-8.251 -14.947,-13.817 -14.947,-30.369 0,-5.144 2.597,-9.679 6.553,-12.366 -1.802,1.977 -2.918,4.598 -2.918,7.491 C -11.118,-4.974 -6.14,0 0,0" />
                        </g>
                    </g>
</svg>